<svg width="25" height="25" viewBox="0 0 25 25" fill="#ffd700"  xmlns="http://www.w3.org/2000/svg">
<path d="M13.885 2.02791C13.3726 0.795976 11.6274 0.795973 11.115 2.02791L8.96661 7.1933C8.89461 7.36642 8.7318 7.48471 8.54491 7.49969L2.96844 7.94675C1.63846 8.05338 1.09917 9.71314 2.11247 10.5811L6.36116 14.2206C6.50355 14.3426 6.56573 14.534 6.52223 14.7163L5.22419 20.158C4.91461 21.4559 6.32649 22.4817 7.46513 21.7862L12.2394 18.8701C12.3994 18.7723 12.6006 18.7723 12.7606 18.8701L17.5349 21.7862C18.6735 22.4817 20.0854 21.4559 19.7758 20.158L18.4778 14.7163C18.4343 14.534 18.4965 14.3426 18.6388 14.2206L22.8875 10.5811C23.9008 9.71314 23.3615 8.05338 22.0316 7.94675L16.4551 7.49969C16.2682 7.48471 16.1054 7.36642 16.0334 7.1933L13.885 2.02791Z" stroke="#909499"/>
</svg>